<?xml version="1.0" encoding="UTF-8" standalone="no"?>
<!-- Created with Inkscape (http://www.inkscape.org/) -->

<svg
   xmlns:dc="http://purl.org/dc/elements/1.1/"
   xmlns:cc="http://creativecommons.org/ns#"
   xmlns:rdf="http://www.w3.org/1999/02/22-rdf-syntax-ns#"
   xmlns:svg="http://www.w3.org/2000/svg"
   xmlns="http://www.w3.org/2000/svg"
   xmlns:xlink="http://www.w3.org/1999/xlink"
   xmlns:sodipodi="http://sodipodi.sourceforge.net/DTD/sodipodi-0.dtd"
   xmlns:inkscape="http://www.inkscape.org/namespaces/inkscape"
   version="1.0"
   width="609.68799"
   height="589.72632"
   id="svg2"
   sodipodi:version="0.32"
   inkscape:version="0.92.2 5c3e80d, 2017-08-06"
   sodipodi:docname="tux.svg"
   inkscape:output_extension="org.inkscape.output.svg.inkscape">
  <metadata
     id="metadata2711">
    <rdf:RDF>
      <cc:Work
         rdf:about="">
        <dc:format>image/svg+xml</dc:format>
        <dc:type
           rdf:resource="http://purl.org/dc/dcmitype/StillImage" />
      </cc:Work>
    </rdf:RDF>
  </metadata>
  <sodipodi:namedview
     inkscape:window-height="703"
     inkscape:window-width="1366"
     inkscape:pageshadow="2"
     inkscape:pageopacity="0.0"
     guidetolerance="10.0"
     gridtolerance="10.0"
     objecttolerance="10.0"
     borderopacity="1.0"
     bordercolor="#666666"
     pagecolor="#ffffff"
     id="base"
     showgrid="false"
     inkscape:zoom="0.8567168"
     inkscape:cx="114.63587"
     inkscape:cy="294.91286"
     inkscape:window-x="0"
     inkscape:window-y="282"
     inkscape:current-layer="leftEye"
     inkscape:window-maximized="1"
     inkscape:snap-to-guides="true"
     inkscape:snap-grids="false" />
  <defs
     id="defs4">
    <inkscape:perspective
       sodipodi:type="inkscape:persp3d"
       inkscape:vp_x="0 : 294.86316 : 1"
       inkscape:vp_y="0 : 1000 : 0"
       inkscape:vp_z="609.68799 : 294.86316 : 1"
       inkscape:persp3d-origin="304.84399 : 196.57544 : 1"
       id="perspective2713" />
    <linearGradient
       id="linearGradient23837">
      <stop
         id="stop23839"
         style="stop-color:#ffba00;stop-opacity:1"
         offset="0" />
      <stop
         id="stop23841"
         style="stop-color:#ffffba;stop-opacity:1"
         offset="1" />
    </linearGradient>
    <linearGradient
       id="linearGradient10084">
      <stop
         id="stop10086"
         style="stop-color:#000000;stop-opacity:1"
         offset="0" />
      <stop
         id="stop10088"
         style="stop-color:#000000;stop-opacity:0"
         offset="1" />
    </linearGradient>
    <linearGradient
       id="linearGradient5197">
      <stop
         id="stop5199"
         style="stop-color:#000000;stop-opacity:1"
         offset="0" />
      <stop
         id="stop5201"
         style="stop-color:#ffffff;stop-opacity:1"
         offset="1" />
    </linearGradient>
    <linearGradient
       id="linearGradient3225">
      <stop
         id="stop3227"
         style="stop-color:#000000;stop-opacity:0.71951222"
         offset="0" />
      <stop
         id="stop3229"
         style="stop-color:#ffffff;stop-opacity:0"
         offset="1" />
    </linearGradient>
    <linearGradient
       x1="263.61029"
       y1="435.38452"
       x2="358.50229"
       y2="314.54004"
       id="linearGradient7163"
       xlink:href="#linearGradient5197"
       gradientUnits="userSpaceOnUse"
       spreadMethod="reflect" />
    <linearGradient
       x1="353.82788"
       y1="353.77969"
       x2="370.98239"
       y2="331.95367"
       id="linearGradient10090"
       xlink:href="#linearGradient5197"
       gradientUnits="userSpaceOnUse" />
    <linearGradient
       x1="353.82788"
       y1="353.77969"
       x2="370.98239"
       y2="331.95367"
       id="linearGradient10111"
       xlink:href="#linearGradient5197"
       gradientUnits="userSpaceOnUse" />
    <linearGradient
       x1="283.11636"
       y1="420.78415"
       x2="450.77399"
       y2="341.96973"
       id="linearGradient11090"
       xlink:href="#linearGradient5197"
       gradientUnits="userSpaceOnUse" />
    <linearGradient
       x1="278.7821"
       y1="598.48175"
       x2="300.01877"
       y2="538.17981"
       id="linearGradient23835"
       xlink:href="#linearGradient23837"
       gradientUnits="userSpaceOnUse" />
    <linearGradient
       x1="278.7821"
       y1="598.48175"
       x2="300.01877"
       y2="538.17981"
       id="linearGradient3203"
       xlink:href="#linearGradient23837"
       gradientUnits="userSpaceOnUse" />
    <linearGradient
       x1="375.17139"
       y1="481.12695"
       x2="375.17139"
       y2="627.55237"
       id="linearGradient5169"
       xlink:href="#linearGradient3225"
       gradientUnits="userSpaceOnUse" />
    <linearGradient
       x1="374.40475"
       y1="322.73111"
       x2="376.95914"
       y2="480.08231"
       id="linearGradient3323"
       xlink:href="#linearGradient3225"
       gradientUnits="userSpaceOnUse"
       gradientTransform="matrix(1.0235525,0,0,1.050454,-12.200122,-42.415783)" />
    <linearGradient
       x1="380.47522"
       y1="608.65906"
       x2="381.77103"
       y2="498.26285"
       id="linearGradient3331"
       xlink:href="#linearGradient3225"
       gradientUnits="userSpaceOnUse" />
    <linearGradient
       x1="351.30554"
       y1="540.31189"
       x2="353.6087"
       y2="645.33484"
       id="linearGradient3347"
       xlink:href="#linearGradient3225"
       gradientUnits="userSpaceOnUse" />
    <linearGradient
       x1="353.82788"
       y1="353.77969"
       x2="370.98239"
       y2="331.95367"
       id="linearGradient2254"
       xlink:href="#linearGradient5197"
       gradientUnits="userSpaceOnUse" />
    <linearGradient
       x1="416.03726"
       y1="314.99216"
       x2="416.67383"
       y2="287.50903"
       id="linearGradient2365"
       xlink:href="#linearGradient5197"
       gradientUnits="userSpaceOnUse"
       gradientTransform="matrix(1.5914941,0,0,1.5914941,-1056.2044,29.12901)" />
    <linearGradient
       x1="333.62714"
       y1="305.53073"
       x2="338.83194"
       y2="276.24545"
       id="linearGradient2368"
       xlink:href="#linearGradient5197"
       gradientUnits="userSpaceOnUse"
       gradientTransform="matrix(1.5914941,0,0,1.5914941,-1056.2044,29.12901)" />
    <linearGradient
       x1="379.11264"
       y1="378.87973"
       x2="383.80917"
       y2="225.32318"
       id="linearGradient2371"
       xlink:href="#linearGradient5197"
       gradientUnits="userSpaceOnUse"
       gradientTransform="matrix(1.5914941,0,0,1.5914941,-1056.2044,29.12901)"
       spreadMethod="repeat" />
    <linearGradient
       x1="267.00482"
       y1="450.1579"
       x2="195.34068"
       y2="423.26831"
       id="linearGradient2375"
       xlink:href="#linearGradient5197"
       gradientUnits="userSpaceOnUse"
       gradientTransform="matrix(1.5914941,0,0,1.5914941,-1056.2044,29.12901)" />
    <linearGradient
       x1="346.8956"
       y1="409.87292"
       x2="406.49899"
       y2="371.66501"
       id="linearGradient2379"
       xlink:href="#linearGradient23837"
       gradientUnits="userSpaceOnUse"
       gradientTransform="matrix(1.5914941,0,0,1.5914941,-1056.2044,29.12901)" />
    <linearGradient
       x1="228.8004"
       y1="401.76709"
       x2="361.57016"
       y2="343.16568"
       id="linearGradient2382"
       xlink:href="#linearGradient5197"
       gradientUnits="userSpaceOnUse"
       gradientTransform="matrix(1.5914941,0,0,1.5914941,-1056.2044,29.12901)" />
    <linearGradient
       x1="335.76212"
       y1="383.67514"
       x2="432.98227"
       y2="334.34232"
       id="linearGradient2385"
       xlink:href="#linearGradient5197"
       gradientUnits="userSpaceOnUse"
       gradientTransform="matrix(1.5914941,0,0,1.5914941,-1056.2044,29.12901)" />
    <linearGradient
       x1="584.44714"
       y1="496.83411"
       x2="411.60892"
       y2="312.98669"
       id="linearGradient2388"
       xlink:href="#linearGradient5197"
       gradientUnits="userSpaceOnUse"
       gradientTransform="matrix(1.5914941,0,0,1.5914941,-1056.2044,29.12901)" />
    <linearGradient
       x1="533.03326"
       y1="446.52438"
       x2="547.33417"
       y2="428.58325"
       id="linearGradient2392"
       xlink:href="#linearGradient3225"
       gradientUnits="userSpaceOnUse"
       gradientTransform="matrix(1.5914941,0,0,1.5914941,-1056.2044,29.12901)" />
    <linearGradient
       inkscape:collect="always"
       xlink:href="#linearGradient5197"
       id="linearGradient2725"
       gradientUnits="userSpaceOnUse"
       spreadMethod="reflect"
       x1="263.61029"
       y1="435.38452"
       x2="358.50229"
       y2="314.54004"
       gradientTransform="matrix(1.6597987,0,0,1.5671594,-314.91405,-355.60847)" />
    <linearGradient
       inkscape:collect="always"
       xlink:href="#linearGradient5197"
       id="linearGradient2727"
       gradientUnits="userSpaceOnUse"
       x1="283.11636"
       y1="420.78415"
       x2="450.77399"
       y2="341.96973"
       gradientTransform="matrix(1.7310695,0,0,1.8238389,-355.59163,-447.43624)" />
    <linearGradient
       inkscape:collect="always"
       xlink:href="#linearGradient5197"
       id="linearGradient2729"
       gradientUnits="userSpaceOnUse"
       gradientTransform="matrix(1.5494057,0,0,1.5246618,-273.67688,-344.44294)"
       x1="584.44714"
       y1="496.83411"
       x2="411.60892"
       y2="312.98669" />
    <linearGradient
       inkscape:collect="always"
       xlink:href="#linearGradient5197"
       id="linearGradient2731"
       gradientUnits="userSpaceOnUse"
       gradientTransform="matrix(1.5914941,0,0,1.5914941,-291.44765,-365.04342)"
       x1="335.76212"
       y1="383.67514"
       x2="432.98227"
       y2="334.34232" />
    <linearGradient
       inkscape:collect="always"
       xlink:href="#linearGradient5197"
       id="linearGradient2733"
       gradientUnits="userSpaceOnUse"
       gradientTransform="matrix(1.5914941,0,0,1.5914941,-291.44765,-365.04342)"
       x1="228.8004"
       y1="401.76709"
       x2="361.57016"
       y2="343.16568" />
    <linearGradient
       inkscape:collect="always"
       xlink:href="#linearGradient23837"
       id="linearGradient2779"
       gradientUnits="userSpaceOnUse"
       gradientTransform="matrix(1.5914941,0,0,1.5914941,-290.8429,-367.82281)"
       x1="346.8956"
       y1="409.87292"
       x2="406.49899"
       y2="371.66501" />
    <linearGradient
       inkscape:collect="always"
       xlink:href="#linearGradient23837"
       id="linearGradient2781"
       gradientUnits="userSpaceOnUse"
       x1="278.7821"
       y1="598.48175"
       x2="300.01877"
       y2="538.17981"
       gradientTransform="matrix(1.7348179,0,0,1.8905525,-334.14199,-549.14321)" />
    <linearGradient
       inkscape:collect="always"
       xlink:href="#linearGradient23837"
       id="linearGradient2783"
       gradientUnits="userSpaceOnUse"
       x1="278.7821"
       y1="598.48175"
       x2="300.01877"
       y2="538.17981"
       gradientTransform="matrix(1.7348179,0,0,1.8905525,-52.984806,-549.14321)" />
    <inkscape:perspective
       id="perspective3210"
       inkscape:persp3d-origin="0.5 : 0.33333333 : 1"
       inkscape:vp_z="1 : 0.5 : 1"
       inkscape:vp_y="0 : 1000 : 0"
       inkscape:vp_x="0 : 0.5 : 1"
       sodipodi:type="inkscape:persp3d" />
    <linearGradient
       x1="353.82788"
       y1="353.77969"
       x2="370.98239"
       y2="331.95367"
       id="linearGradient2254-2"
       xlink:href="#linearGradient5197-3"
       gradientUnits="userSpaceOnUse" />
    <linearGradient
       id="linearGradient5197-3">
      <stop
         id="stop5199-7"
         style="stop-color:#000000;stop-opacity:1"
         offset="0" />
      <stop
         id="stop5201-5"
         style="stop-color:#ffffff;stop-opacity:1"
         offset="1" />
    </linearGradient>
    <inkscape:perspective
       id="perspective3263"
       inkscape:persp3d-origin="0.5 : 0.33333333 : 1"
       inkscape:vp_z="1 : 0.5 : 1"
       inkscape:vp_y="0 : 1000 : 0"
       inkscape:vp_x="0 : 0.5 : 1"
       sodipodi:type="inkscape:persp3d" />
    <linearGradient
       x1="353.82788"
       y1="353.77969"
       x2="370.98239"
       y2="331.95367"
       id="linearGradient10090-8"
       xlink:href="#linearGradient5197-9"
       gradientUnits="userSpaceOnUse" />
    <linearGradient
       id="linearGradient5197-9">
      <stop
         id="stop5199-73"
         style="stop-color:#000000;stop-opacity:1"
         offset="0" />
      <stop
         id="stop5201-6"
         style="stop-color:#ffffff;stop-opacity:1"
         offset="1" />
    </linearGradient>
    <linearGradient
       inkscape:collect="always"
       xlink:href="#linearGradient5197-9"
       id="linearGradient3300"
       gradientUnits="userSpaceOnUse"
       gradientTransform="matrix(1.7904309,0,0,1.5914941,63.891337,-182.65575)"
       x1="353.82788"
       y1="353.77969"
       x2="370.98239"
       y2="331.95367" />
    <linearGradient
       inkscape:collect="always"
       xlink:href="#linearGradient23837"
       id="linearGradient2916"
       gradientUnits="userSpaceOnUse"
       gradientTransform="matrix(1.5914941,0,0,1.5914941,-290.8429,-367.82281)"
       x1="346.8956"
       y1="409.87292"
       x2="406.49899"
       y2="371.66501" />
    <linearGradient
       inkscape:collect="always"
       xlink:href="#linearGradient23837"
       id="linearGradient2920"
       gradientUnits="userSpaceOnUse"
       gradientTransform="matrix(1.5914941,0,0,1.5914941,-290.8429,-367.82281)"
       x1="346.8956"
       y1="409.87292"
       x2="406.49899"
       y2="371.66501" />
    <linearGradient
       inkscape:collect="always"
       xlink:href="#linearGradient23837"
       id="linearGradient2923"
       gradientUnits="userSpaceOnUse"
       gradientTransform="matrix(1.7348179,0,0,1.8905525,-52.984806,-549.14321)"
       x1="278.7821"
       y1="598.48175"
       x2="300.01877"
       y2="538.17981" />
    <linearGradient
       inkscape:collect="always"
       xlink:href="#linearGradient23837"
       id="linearGradient2926"
       gradientUnits="userSpaceOnUse"
       gradientTransform="matrix(1.7348179,0,0,1.8905525,-334.14199,-549.14321)"
       x1="278.7821"
       y1="598.48175"
       x2="300.01877"
       y2="538.17981" />
    <linearGradient
       inkscape:collect="always"
       xlink:href="#linearGradient5197"
       id="linearGradient2932"
       gradientUnits="userSpaceOnUse"
       gradientTransform="matrix(1.5914941,0,0,1.5914941,-291.44765,-365.04342)"
       x1="228.8004"
       y1="401.76709"
       x2="361.57016"
       y2="343.16568" />
    <linearGradient
       inkscape:collect="always"
       xlink:href="#linearGradient5197"
       id="linearGradient2935"
       gradientUnits="userSpaceOnUse"
       gradientTransform="matrix(1.5914941,0,0,1.5914941,-291.44765,-365.04342)"
       x1="335.76212"
       y1="383.67514"
       x2="432.98227"
       y2="334.34232" />
    <linearGradient
       inkscape:collect="always"
       xlink:href="#linearGradient5197"
       id="linearGradient2938"
       gradientUnits="userSpaceOnUse"
       gradientTransform="matrix(1.5494057,0,0,1.5246618,-273.67688,-344.44294)"
       x1="584.44714"
       y1="496.83411"
       x2="411.60892"
       y2="312.98669" />
    <linearGradient
       inkscape:collect="always"
       xlink:href="#linearGradient5197"
       id="linearGradient2941"
       gradientUnits="userSpaceOnUse"
       gradientTransform="matrix(1.7310695,0,0,1.8238389,-355.59163,-447.43624)"
       x1="283.11636"
       y1="420.78415"
       x2="450.77399"
       y2="341.96973" />
    <linearGradient
       inkscape:collect="always"
       xlink:href="#linearGradient5197"
       id="linearGradient2944"
       gradientUnits="userSpaceOnUse"
       gradientTransform="matrix(1.6597987,0,0,1.5671594,-314.91405,-355.60847)"
       spreadMethod="reflect"
       x1="263.61029"
       y1="435.38452"
       x2="358.50229"
       y2="314.54004" />
    <linearGradient
       inkscape:collect="always"
       xlink:href="#linearGradient23837"
       id="linearGradient2933"
       gradientUnits="userSpaceOnUse"
       gradientTransform="matrix(1.7348179,0,0,1.8905525,-52.984806,-549.14321)"
       x1="278.7821"
       y1="598.48175"
       x2="300.01877"
       y2="538.17981" />
    <linearGradient
       inkscape:collect="always"
       xlink:href="#linearGradient23837"
       id="linearGradient2936"
       gradientUnits="userSpaceOnUse"
       gradientTransform="matrix(1.7348179,0,0,1.8905525,-334.14199,-549.14321)"
       x1="278.7821"
       y1="598.48175"
       x2="300.01877"
       y2="538.17981" />
    <linearGradient
       inkscape:collect="always"
       xlink:href="#linearGradient5197"
       id="linearGradient2939"
       gradientUnits="userSpaceOnUse"
       gradientTransform="matrix(1.5914941,0,0,1.5914941,-291.44765,-365.04342)"
       x1="228.8004"
       y1="401.76709"
       x2="361.57016"
       y2="343.16568" />
    <linearGradient
       inkscape:collect="always"
       xlink:href="#linearGradient5197"
       id="linearGradient2942"
       gradientUnits="userSpaceOnUse"
       gradientTransform="matrix(1.5914941,0,0,1.5914941,-291.44765,-365.04342)"
       x1="335.76212"
       y1="383.67514"
       x2="432.98227"
       y2="334.34232" />
    <linearGradient
       inkscape:collect="always"
       xlink:href="#linearGradient5197"
       id="linearGradient2945"
       gradientUnits="userSpaceOnUse"
       gradientTransform="matrix(1.5494057,0,0,1.5246618,-273.67688,-344.44294)"
       x1="584.44714"
       y1="496.83411"
       x2="411.60892"
       y2="312.98669" />
    <linearGradient
       inkscape:collect="always"
       xlink:href="#linearGradient5197"
       id="linearGradient2948"
       gradientUnits="userSpaceOnUse"
       gradientTransform="matrix(1.7310695,0,0,1.8238389,-355.59163,-447.43624)"
       x1="283.11636"
       y1="420.78415"
       x2="450.77399"
       y2="341.96973" />
    <linearGradient
       inkscape:collect="always"
       xlink:href="#linearGradient5197"
       id="linearGradient2951"
       gradientUnits="userSpaceOnUse"
       gradientTransform="matrix(1.6597987,0,0,1.5671594,-314.91405,-355.60847)"
       spreadMethod="reflect"
       x1="263.61029"
       y1="435.38452"
       x2="358.50229"
       y2="314.54004" />
    <linearGradient
       inkscape:collect="always"
       xlink:href="#linearGradient23837"
       id="linearGradient3039"
       gradientUnits="userSpaceOnUse"
       gradientTransform="matrix(1.5914941,0,0,1.5914941,-290.8429,-367.82281)"
       x1="346.8956"
       y1="409.87292"
       x2="406.49899"
       y2="371.66501" />
    <linearGradient
       inkscape:collect="always"
       xlink:href="#linearGradient23837"
       id="linearGradient3043"
       gradientUnits="userSpaceOnUse"
       gradientTransform="matrix(1.5914941,0,0,1.5914941,-290.8429,-367.82281)"
       x1="346.8956"
       y1="409.87292"
       x2="406.49899"
       y2="371.66501" />
    <linearGradient
       inkscape:collect="always"
       xlink:href="#linearGradient5197-3"
       id="linearGradient3051"
       gradientUnits="userSpaceOnUse"
       x1="353.82788"
       y1="353.77969"
       x2="370.98239"
       y2="331.95367" />
    <linearGradient
       inkscape:collect="always"
       xlink:href="#linearGradient23837"
       id="linearGradient3919"
       gradientUnits="userSpaceOnUse"
       gradientTransform="matrix(1.7348179,0,0,1.8905525,-334.14199,-549.14321)"
       x1="278.7821"
       y1="598.48175"
       x2="300.01877"
       y2="538.17981" />
    <linearGradient
       inkscape:collect="always"
       xlink:href="#linearGradient23837"
       id="linearGradient3921"
       gradientUnits="userSpaceOnUse"
       gradientTransform="matrix(1.7348179,0,0,1.8905525,-52.984806,-549.14321)"
       x1="278.7821"
       y1="598.48175"
       x2="300.01877"
       y2="538.17981" />
    <linearGradient
       inkscape:collect="always"
       xlink:href="#linearGradient23837"
       id="linearGradient3923"
       gradientUnits="userSpaceOnUse"
       gradientTransform="matrix(1.5914941,0,0,1.5914941,-290.8429,-367.82281)"
       x1="346.8956"
       y1="409.87292"
       x2="406.49899"
       y2="371.66501" />
    <linearGradient
       inkscape:collect="always"
       xlink:href="#linearGradient23837"
       id="linearGradient3927"
       gradientUnits="userSpaceOnUse"
       gradientTransform="matrix(1.5914941,0,0,1.5914941,-290.8429,-367.82281)"
       x1="346.8956"
       y1="409.87292"
       x2="406.49899"
       y2="371.66501" />
    <linearGradient
       inkscape:collect="always"
       xlink:href="#linearGradient23837"
       id="linearGradient3930"
       gradientUnits="userSpaceOnUse"
       gradientTransform="matrix(1.7348179,0,0,1.8905525,-52.984806,-549.14321)"
       x1="278.7821"
       y1="598.48175"
       x2="300.01877"
       y2="538.17981" />
    <linearGradient
       inkscape:collect="always"
       xlink:href="#linearGradient23837"
       id="linearGradient3933"
       gradientUnits="userSpaceOnUse"
       gradientTransform="matrix(1.7348179,0,0,1.8905525,-334.14199,-549.14321)"
       x1="278.7821"
       y1="598.48175"
       x2="300.01877"
       y2="538.17981" />
    <linearGradient
       inkscape:collect="always"
       xlink:href="#linearGradient5197-3"
       id="linearGradient4118"
       gradientUnits="userSpaceOnUse"
       gradientTransform="matrix(1.6008357,0,0,1.376695,555.66473,-71.718314)"
       x1="353.82788"
       y1="353.77969"
       x2="370.98239"
       y2="331.95367" />
    <linearGradient
       inkscape:collect="always"
       xlink:href="#linearGradient5197-9"
       id="linearGradient4123"
       gradientUnits="userSpaceOnUse"
       gradientTransform="matrix(1.7904309,0,0,1.5914941,1620.0579,-260.98277)"
       x1="353.82788"
       y1="353.77969"
       x2="370.98239"
       y2="331.95367" />
    <linearGradient
       inkscape:collect="always"
       xlink:href="#linearGradient5197-9"
       id="linearGradient4134"
       gradientUnits="userSpaceOnUse"
       gradientTransform="matrix(1.7904309,0,0,1.5914941,1620.0579,-260.98277)"
       x1="353.82788"
       y1="353.77969"
       x2="370.98239"
       y2="331.95367" />
  </defs>
  <g
     id="tux"
     inkscape:label="#g3053"
     style="display:inline">
    <g
       inkscape:label="#layer1"
       style="display:inline"
       id="tuxBody"
       transform="translate(765.794,-397.17063)">
      <path
         style="fill:#ececec;fill-opacity:1;fill-rule:evenodd;stroke:none"
         id="path17935"
         d="m -603.03725,892.27178 c 0,0 -8.60445,-12.9066 -10.03852,-15.7748 -1.43407,-2.8681 -25.09627,-93.2147 -19.35999,-123.3303 5.73631,-30.1155 7.88741,-53.0607 12.90667,-59.514 5.01925,-6.4534 33.70071,-42.3052 37.28591,-44.4563 3.58517,-2.1511 18.64294,-26.5304 27.96441,-26.5304 9.32148,0 76.0059,30.1156 84.61032,28.6815 8.60445,-1.4341 45.89035,-1.4341 48.7585,-3.5852 2.86814,-2.1511 13.6237,-10.7555 13.6237,-10.7555 l 10.03851,-5.7363 c 0,0 22.94518,-2.1511 27.24738,-2.1511 4.30224,0 31.5496,15.7748 38.71998,23.6622 7.17037,7.8874 52.34369,59.514 51.62666,86.7614 -0.71703,27.2474 0,48.7585 -2.86817,56.6459 -2.86814,7.8874 -10.75555,35.8519 -12.90665,43.7393 -2.1511,7.8873 -6.45334,24.3792 -7.17038,30.8325 -0.71703,6.4534 -8.60444,12.9067 -11.47257,15.7748 -2.86814,2.8682 -40.15405,8.6045 -47.32442,11.4726 -7.17038,2.8682 -29.3985,18.6429 -35.85183,21.5111 -6.45334,2.8682 -20.79407,12.9067 -20.79407,12.9067 0,0 -20.07702,20.077 -24.37924,22.2281 -4.30222,2.1511 -40.87108,9.3215 -53.77775,1.4341 -12.90665,-7.8874 -27.24738,-21.5111 -33.70071,-29.3985 -6.45334,-7.8874 -20.79407,-22.9452 -25.81332,-27.2474 -5.01926,-4.3022 -47.32442,-5.7363 -47.32442,-7.1704 z"
         inkscape:connector-curvature="0" />
      <path
         style="fill:url(#linearGradient7163);fill-opacity:1;stroke:none"
         id="path6186"
         transform="matrix(1.6597987,0,0,1.5671594,-1081.6708,38.56396)"
         d="m 372.83644,338.83038 a 34.831955,48.884331 0 1 1 -69.66391,0 34.831955,48.884331 0 1 1 69.66391,0 z"
         inkscape:connector-curvature="0" />
      <path
         style="fill:#cccccc;fill-opacity:1;fill-rule:evenodd;stroke:none"
         id="path6184"
         d="m -599.84463,888.85088 c 0,0 -15.22673,-43.7769 -15.70258,-78.9887 -0.47583,-35.2119 -2.37916,-55.6728 4.28253,-82.3196 6.66169,-26.6468 6.66169,-29.9776 6.66169,-29.9776 l -34.26016,65.6653 c 0,0 -5.23419,29.0259 -5.71003,31.881 -0.47584,2.855 4.28252,55.1969 4.28252,55.1969 l 5.23419,18.0817 11.42007,18.0818 6.66169,6.1859 z"
         inkscape:connector-curvature="0" />
      <path
         style="fill:#cccccc;fill-opacity:1;fill-rule:evenodd;stroke:none"
         id="path4226"
         d="m -318.65921,889.80248 c 0,0 15.22675,-43.7768 15.70259,-78.9887 0.47584,-35.2118 2.37916,-55.6727 -4.28251,-82.3195 -6.66169,-26.6468 -6.66169,-29.9777 -6.66169,-29.9777 l 34.26013,65.6654 c 0,0 5.23422,29.0259 5.71006,31.8809 0.47584,2.855 -4.28255,55.1969 -4.28255,55.1969 l -5.23418,18.0818 -11.42004,18.0818 -6.6617,6.1858 z"
         inkscape:connector-curvature="0" />
      <path
         style="fill:url(#linearGradient2392);fill-opacity:1;fill-rule:evenodd;stroke:none"
         id="path2253"
         d="m -257.95658,669.00768 2.06906,8.2763 86.48717,88.1424 8.27632,7.0349 3.31049,-1.6553 -3.72433,-10.7592 -12.00061,-16.9663 -15.31114,-16.5526 -25.65648,-21.9322 -16.55257,-13.242 -14.06967,-12.8283 -5.79343,-5.7934 -2.48286,-2.0691 z"
         inkscape:connector-curvature="0" />
      <path
         style="fill:url(#linearGradient11090);fill-opacity:1;stroke:none"
         id="path10113"
         transform="matrix(1.7780927,0,0,1.9037854,-1140.3443,-78.37891)"
         d="m 450.27399,341.96973 a 33.7855,27.805765 0 1 1 -67.57099,0 33.7855,27.805765 0 1 1 67.57099,0 z"
         inkscape:connector-curvature="0" />
      <path
         style="fill:url(#linearGradient2388);fill-opacity:1;fill-rule:evenodd;stroke:none"
         id="path13048"
         d="m -376.71114,604.30118 c 0,0 12.84755,-0.9517 18.55758,-3.3309 5.71002,-2.3792 13.79923,-8.0892 13.79923,-8.0892 0,0 12.37172,-22.8401 -5.71002,-49.4869 -18.08174,-26.6468 -63.28613,-21.4126 -63.28613,-21.4126 l -5.71003,3.3309 z"
         inkscape:connector-curvature="0" />
      <path
         style="fill:url(#linearGradient2385);fill-opacity:1;fill-rule:evenodd;stroke:none"
         id="path12067"
         d="m -416.2055,525.31248 v 0 c 0,0 26.6468,4.7583 42.34939,35.2118 15.70255,30.4535 -0.95168,44.2527 -0.95168,44.2527 0,0 -31.40516,6.1859 -50.43858,-3.8067 -19.03343,-9.9925 -28.0743,-43.301 -28.0743,-43.301 0,0 0.95167,-10.9442 15.22674,-20.461 14.27506,-9.5167 22.36428,-11.42 21.88843,-11.8958 z"
         inkscape:connector-curvature="0" />
      <path
         style="fill:url(#linearGradient2382);fill-opacity:1;fill-rule:evenodd;stroke:none"
         id="path7165"
         d="m -559.43201,515.79568 c 0,0 -4.75836,42.8252 14.7509,68.5204 19.50926,25.6951 53.29359,36.1635 53.29359,36.1635 0,0 9.99255,-47.5836 -8.56504,-71.8512 -18.5576,-24.2676 -59.47945,-32.8327 -59.47945,-32.8327 z"
         inkscape:connector-curvature="0" />
      <path
         style="fill:url(#linearGradient2375);fill-opacity:1;fill-rule:evenodd;stroke:none"
         id="path6164"
         d="m -668.33584,670.32038 c 0,0 -26.71832,24.9069 -34.41682,31.6997 -7.69851,6.7928 -18.34056,13.812 -30.794,26.0391 -12.45346,12.227 -23.54837,26.2654 -24.22763,27.624 -0.67929,1.3586 -4.52854,7.0192 -4.30212,10.4156 0.22643,3.3964 -0.9057,7.9249 1.58499,7.0192 2.49069,-0.9057 52.30452,-47.5495 55.70091,-51.3988 3.39641,-3.8492 27.62404,-28.3033 32.60542,-33.5111 4.98138,-5.2078 7.92492,-11.0949 7.92492,-11.0949 l 1.58499,-5.2078 0.22642,-1.585 z"
         inkscape:connector-curvature="0" />
      <path
         style="fill:#636363"
         id="path2225"
         d="m -483.28817,976.96358 c 5.96487,-6.8167 7.55634,-13.5639 6.45006,-27.3459 -0.54788,-6.8253 -2.23524,-12.6419 -5.30194,-18.2764 -5.25896,-9.6625 -19.11892,-23.0226 -31.17205,-30.0478 -4.67023,-2.7221 -7.87987,-4.9651 -7.13254,-4.9844 2.90894,-0.0752 24.67125,12.3284 36.02871,20.5348 6.57187,4.7485 14.45544,9.5168 17.51907,10.5961 7.17979,2.5295 10.86476,1.0109 28.64689,-11.8057 7.44024,-5.3626 19.97326,-12.5561 27.85115,-15.9855 19.90745,-8.6661 24.89559,-9.6652 9.14611,-1.8319 -38.62642,19.2115 -56.24305,57.6968 -36.4106,79.5426 l 4.98357,5.4894 -6.16626,-4.528 c -5.45147,-4.0031 -7.84975,-4.6123 -20.68942,-5.2556 -14.38824,-0.7208 -14.5897,-0.6791 -21.68489,4.496 l -7.16172,5.2236 z m -155.2633,-102.8441 c -22.31141,-33.6807 -34.09595,-67.9125 -36.5906,-106.2889 -0.58074,-8.9337 -1.81142,-16.9986 -2.73484,-17.922 -3.12358,-3.1236 -20.25549,3.983 -47.63775,19.7608 -26.64631,15.3538 -28.19044,15.9726 -33.51394,13.4313 -3.89532,-1.8595 -4.82492,-3.4361 -5.53305,-9.3843 -1.03314,-8.678 1.76018,-15.1263 12.20606,-28.177 12.12554,-15.1493 19.51105,-22.3194 39.57288,-38.4187 57.17472,-45.8817 71.57763,-72.341 75.59741,-138.8781 1.64529,-27.2335 2.68569,-33.6475 8.23111,-50.7442 17.6155,-54.3092 66.3235,-99.625 123.05403,-114.4841 62.47561,-16.3639 127.94137,2.1658 173.07564,48.988 32.62044,33.8404 46.05796,66.1991 49.00794,118.0154 3.70429,65.0649 18.38775,91.5337 76.66592,138.2002 30.5302,24.4472 50.70865,49.2995 51.03253,62.8529 0.19086,7.9876 -1.84968,11.4176 -7.65973,12.8759 -4.45106,1.1171 -9.83936,-1.3799 -38.87724,-18.0161 -22.01087,-12.6103 -37.54866,-18.637 -40.89308,-15.8614 -1.35457,1.1242 -2.13334,5.3218 -2.13739,11.5205 -0.008,12.9407 -3.70979,35.1711 -8.78595,52.7698 -6.70139,23.2331 -17.85331,44.8885 -39.14798,76.0196 -0.57852,0.8457 -2.38771,0.7016 -4.34561,-0.3462 -3.31712,-1.7752 -3.29496,-1.8789 1.98835,-9.3154 2.93851,-4.1361 6.52383,-9.8477 7.96737,-12.6925 2.35328,-4.6377 2.36699,-5.1724 0.13275,-5.1724 -1.89559,0 -2.45381,-1.6186 -2.33275,-6.7638 0.0875,-3.7201 -0.0953,-23.2358 -0.40634,-43.3682 -0.48224,-31.2164 -1.10451,-38.9337 -4.22747,-52.4292 -11.50447,-49.7148 -34.07594,-89.4347 -64.64448,-113.7577 -16.201,-12.8908 -22.56022,-15.3996 -34.1687,-13.4797 l -9.31836,1.5411 -0.65128,-4.4376 c -0.6087,-4.1473 -0.27906,-4.4387 5.04117,-4.4564 14.20916,-0.0472 34.55215,-8.9546 43.78132,-19.1702 7.61868,-8.4329 12.6278,-22.3055 12.60951,-34.9217 -0.0367,-25.2899 -22.20248,-46.4083 -51.26756,-48.845 -9.03327,-0.7573 -13.33879,-0.2565 -22.15,2.5767 -12.20083,3.9231 -24.62422,12.474 -30.28187,20.8428 l -3.73971,5.5318 -6.60217,20.9692 c 2.91154,0.5413 16.2944,-18.9067 15.20025,-18.7914 -3.13746,0.3304 -2.31367,5.3546 1.70046,10.3711 3.21046,4.0122 4.11309,4.3565 7.15383,2.7292 4.31521,-2.3095 4.3295,-3.3408 0.1261,-9.0954 -2.50417,-3.4282 -1.93005,-3.1187 2.26646,1.2217 12.6596,13.0939 -5.62262,26.2471 -8.495,42.9257 -0.0948,0.5505 -10.54939,-5.0395 -10.01473,-4.1744 0.63165,1.022 1.05201,8.7906 -7.62784,8.0564 -7.34707,-0.6214 -4.38391,-23.4845 -7.37306,-23.4726 -13.76308,0.0547 -32.94415,11.6219 -33.00375,-7.6628 -0.0302,-9.7756 0.63478,-13.0165 3.67377,-17.9043 3.46246,-5.5689 8.22554,-8.0659 8.22554,-4.3122 0,0.9108 1.60897,3.9545 3.57549,6.7639 1.96651,2.8093 3.7236,5.3729 3.90461,5.6969 0.95239,1.7043 8.43485,-1.8197 8.43485,-3.9726 0,-1.6899 0.86599,-2.1949 2.61371,-1.5242 4.59739,1.7642 1.64212,-15.3861 -4.9495,-28.7233 -16.37051,-33.1235 -49.27739,-44.6425 -76.44318,-26.7589 -17.19174,11.3175 -30.97886,40.3189 -30.97886,65.1645 0,11.7685 4.06379,28.9453 9.43705,39.8884 6.86639,13.984 22.21371,28.2913 34.03371,31.7275 4.97259,1.4455 11.5295,2.4139 14.57092,2.1519 5.31777,-0.4582 6.35966,0.468 27.16783,24.1504 11.90089,13.5447 23.44692,25.5867 25.65787,26.76 6.7977,3.6072 13.6831,1.0987 22.37429,-8.1514 4.29185,-4.5679 11.1615,-11.8861 15.26592,-16.2627 6.3616,-6.7835 7.22323,-7.296 5.84024,-3.4737 -7.22747,19.9749 -22.82959,34.5078 -37.04651,34.5078 -9.56442,0 -17.01489,-5.6479 -33.57855,-25.4545 -13.64371,-16.3149 -20.40697,-22.3755 -28.42323,-25.4701 -2.87251,-1.1089 -10.04725,-4.1715 -15.94385,-6.8056 l -10.72111,-4.7895 -5.98957,3.9805 c -26.24906,17.4441 -50.11211,52.749 -63.98251,94.6609 -8.89508,26.8781 -11.59901,45.3149 -11.15769,76.0787 0.51373,35.8119 -0.45269,50.132 -3.38323,50.132 -2.20479,0 1.38743,7.9208 7.36672,16.2436 6.31424,8.7889 6.61328,10.1458 2.47447,11.2281 -2.39372,0.626 -5.32111,-2.6988 -14.26806,-16.2048 z m 362.63389,-14.4499 c 0.93695,-1.7506 1.3454,-3.183 0.90774,-3.183 -0.43766,0 -1.56231,1.4324 -2.49922,3.183 -0.9369,1.7507 -1.3454,3.183 -0.90774,3.183 0.43766,0 1.56232,-1.4323 2.49922,-3.183 z m 18.25893,-40.6362 c 5.06094,-14.7928 8.8067,-34.9207 9.84356,-52.8951 1.3523,-23.4416 1.83772,-24.0772 15.00488,-19.6444 5.61423,1.89 14.50475,5.7942 19.75666,8.676 23.81926,13.07 39.41001,22.572 40.13484,24.461 0.92554,2.4118 10.94853,2.7874 12.38449,0.464 0.54094,-0.8753 0.0385,-1.5915 -1.11663,-1.5915 -1.15515,0 -7.10583,-5.8435 -13.22378,-12.9857 -6.11791,-7.1422 -19.00142,-19.9401 -28.62996,-28.4398 -9.62854,-8.4997 -25.02622,-23.2461 -34.2171,-32.7697 -15.03279,-15.577 -17.15291,-18.5142 -21.11472,-29.2519 -2.42222,-6.5649 -4.39167,-13.8949 -4.37659,-16.2889 0.0151,-2.394 -2.0527,-7.7653 -4.59502,-11.9362 -9.38447,-15.3961 -15.71218,-42.5973 -17.68374,-76.0178 -2.02581,-34.3408 -6.24135,-51.8196 -18.29594,-75.8607 -21.68994,-43.2572 -62.76187,-76.584 -110.58985,-89.7353 -18.74706,-5.1549 -54.90695,-7.0736 -74.41324,-3.9484 -57.11428,9.1504 -108.01474,47.6571 -131.87525,99.7651 -8.95117,19.548 -13.26809,39.0684 -14.91023,67.4212 -2.07364,35.8032 -8.06776,61.0295 -19.07132,80.2617 -2.67603,4.6772 -4.42567,9.6003 -3.89935,10.9719 0.99263,2.5867 -3.48247,15.9816 -8.74776,26.1836 -3.06068,5.9304 -32.813,35.85 -56.8197,57.1392 -7.10591,6.3015 -17.46787,16.865 -23.02658,23.4745 -5.55872,6.6095 -11.06603,12.0172 -12.23845,12.0172 -1.17244,0 -1.68908,0.7162 -1.1481,1.5915 1.59967,2.5884 9.08611,1.8183 12.62938,-1.2991 4.04375,-3.5578 30.12641,-18.902 43.07291,-25.3396 14.14676,-7.0344 26.17211,-10.6898 28.26886,-8.593 0.94783,0.9478 2.31341,10.4743 3.03461,21.1701 1.50399,22.3049 6.92158,46.7125 14.23642,64.1386 5.25109,12.5097 8.13609,16.022 3.53118,4.2991 -1.44005,-3.666 -2.18883,-7.0949 -1.66396,-7.6198 0.52486,-0.5248 5.69049,3.0637 11.47916,7.9746 5.78868,4.9109 11.02125,8.929 11.62792,8.929 0.60668,10e-5 1.11639,-13.7863 1.1327,-30.6363 0.0221,-22.7731 0.75351,-34.3126 2.84989,-44.9598 10.36671,-52.6509 33.97854,-95.205 69.48887,-125.2353 l 8.70862,-7.3647 -7.38111,-7.891 c -27.32597,-29.2137 -28.66318,-80.5374 -2.946,-113.072 8.02242,-10.1491 19.25418,-17.123 33.64834,-20.8924 l 11.78082,-3.0851 -7.95748,-0.0641 c -10.78916,-0.0869 -25.02517,3.462 -37.43889,9.3331 -13.1579,6.2231 -14.47668,3.7226 -3.40561,-6.4573 12.1763,-11.1961 22.69093,-14.8106 43.26521,-14.8726 15.72536,-0.0474 17.3834,0.2642 27.25049,5.1217 10.42852,5.134 26.041,19.4927 22.48395,20.6783 -0.97414,0.3247 -5.22967,-1.143 -9.45673,-3.2617 -7.83228,-3.9256 -15.05814,-6.421 -23.60049,-8.1502 -2.92338,-0.5918 -0.76377,1.0022 5.57023,4.1114 19.21086,9.43 34.11168,29.5223 38.747,52.2465 1.05318,5.1631 2.33863,9.8112 2.85655,10.3292 0.51794,0.5179 2.84244,-2.9433 5.16556,-7.6916 10.99912,-22.4814 39.69945,-36.2364 65.63687,-31.4572 20.10061,3.7037 36.72992,15.5291 44.72149,31.8023 5.82937,11.8704 6.23362,30.3622 0.91709,41.9498 -5.11298,11.144 -16.86463,22.8256 -28.59382,28.4234 -5.54878,2.6482 -10.08869,5.035 -10.08869,5.304 0,0.269 4.11801,3.212 9.15111,6.5399 30.28075,20.022 56.74858,56.3469 71.03108,97.4845 9.81129,28.2592 12.84449,47.647 12.81729,81.9266 -0.013,16.4122 0.49629,29.8405 1.13178,29.8405 0.63552,0 5.67196,-3.939 11.19207,-8.7532 14.32549,-12.4937 15.32201,-11.8405 7.67276,5.0295 -2.62595,5.7915 -4.71278,10.968 -4.63737,11.5034 0.23139,1.643 12.06663,-24.1059 14.93882,-32.501 z m -82.99915,-299.7268 c -8.21614,-7.4353 -23.67253,-15.8058 -34.51868,-18.6938 -12.24071,-3.2593 -32.17641,-2.8038 -44.54955,1.0179 -5.75204,1.7766 -15.23255,6.4317 -21.06781,10.3447 -5.83526,3.913 -11.11028,7.1145 -11.72228,7.1145 -0.61201,0 -3.39319,-3.5194 -6.18043,-7.8208 -15.38875,-23.7489 -46.13257,-39.1292 -71.80431,-35.9217 -18.04108,2.2541 -40.69264,14.4415 -50.33358,27.0814 -5.3524,7.0174 -7.01597,6.9658 -7.01597,-0.2177 0,-18.2552 11.40109,-42.0668 28.8761,-60.3087 27.15942,-28.3513 64.30806,-42.0599 108.78814,-40.1449 65.53993,2.8218 117.89131,47.0123 121.36494,102.4458 0.88872,14.1827 -0.19347,21.2884 -3.22683,21.1873 -1.07746,-0.0359 -4.95185,-2.7737 -8.60974,-6.084 z m -87.24746,-18.6332 c 10.33606,-4.2193 12.69181,-4.55 32.62563,-4.5805 20.56251,-0.0315 22.03196,0.1879 34.21714,5.1087 8.113,3.2764 15.47442,5.1443 20.29155,5.149 l 7.55959,0.007 v -7.7898 c 0,-31.7823 -29.78222,-68.578 -68.39402,-84.5002 -19.301,-7.9591 -33.28554,-10.3795 -58.92551,-10.1983 -27.31213,0.1929 -40.52255,3.1506 -62.86402,14.0747 -31.802,15.55 -54.09093,42.6231 -59.66795,72.4754 -0.73801,3.9504 -1.12714,7.3972 -0.86474,7.6596 0.26239,0.2624 5.03745,-2.9667 10.61121,-7.1759 16.52615,-12.4799 28.0733,-16.8912 46.25313,-17.6695 12.46024,-0.5334 17.51376,-0.0219 26.25966,2.6578 12.62788,3.8692 26.96174,12.874 37.08972,23.3006 7.07099,7.2795 7.27262,7.3644 15.91494,6.7009 4.81427,-0.3697 13.76642,-2.7186 19.89367,-5.2198 z m -11.58569,16.5692 c 1.05768,-3.173 15.9108,-10.6315 26.65172,-13.3832 20.44652,-5.2382 48.278,-0.5629 59.71316,10.031 l 4.75346,4.4037 -4.20047,0.4887 c -2.31025,0.2687 -10.07873,-0.6265 -17.26335,-1.9894 -16.51257,-3.1324 -39.05534,-3.1696 -55.14371,-0.091 -14.98964,2.8683 -15.29058,2.8795 -14.51081,0.5402 z m 85.0783,-1.1834 c -2.85654,-1.308 -14.31833,-11.166 -39.634,-11.8662 -18.66308,-0.5113 -31.57893,7.5108 -34.43551,8.8187 -4.30873,1.973 13.96847,-2.116 34.79404,-2.116 20.82554,0 43.58423,7.1364 39.27547,5.1635 z m -312.11172,160.2698 c 4.15058,-7.8158 2.40795,-6.8916 -10.05184,5.3312 -6.78375,6.6546 -20.92815,18.891 -31.43201,27.1919 -29.52771,23.3349 -51.65881,48.7134 -51.70864,59.2961 -0.0168,3.5665 89.23842,-84.3735 93.19249,-91.8192 z m 505.19437,91.7786 c 0,-3.0696 -5.71324,-13.3323 -11.72942,-21.0698 -9.50858,-12.2289 -24.22749,-26.1727 -41.58561,-39.3956 -7.8779,-6.0011 -20.58998,-16.9918 -28.24903,-24.4238 -13.72057,-13.3136 -15.63881,-14.5213 -12.1664,-7.6596 1.97062,3.8942 90.63912,93.3957 92.52638,93.3957 0.66226,0 1.20408,-0.3811 1.20408,-0.8469 z m -290.23996,-167.4536 c -1.2437,-2.4072 -3.10467,-7.5115 -4.13547,-11.3429 -1.16042,-4.3133 -2.43996,-6.4005 -3.35981,-5.4807 -1.90895,1.909 -6.20601,18.3763 -5.21401,19.9814 0.41428,0.6703 3.95212,1.2188 7.8619,1.2188 h 7.10866 z m -15.28404,-10.3448 c 3.10585,-6.8423 4.12357,-19.4627 1.85714,-23.0298 -0.96485,-1.5186 -2.5839,-1.5284 -7.41755,-0.0449 -4.06165,1.2466 -6.36771,1.3445 -6.72072,0.2855 -1.47152,-4.4145 -6.5701,-12.525 -8.21935,-13.0747 -2.70137,-0.9005 -6.59778,9.5346 -6.59778,17.6697 0,11.2174 11.79563,24.5895 21.96085,24.8958 1.13695,0.0343 3.44878,-2.9814 5.13741,-6.7016 z m 38.3459,1.629 c 2.92076,-5.4575 4.47931,-14.0765 3.46368,-19.1546 -0.93226,-4.6614 -2.4968,-4.9432 -10.46552,-1.8853 -1.56157,0.5992 -3.73226,-1.4983 -6.58092,-6.3592 -2.33791,-3.9893 -4.97328,-7.2534 -5.85637,-7.2534 -2.51002,0 -6.21768,10.3706 -6.21768,17.3912 0,5.3885 0.98706,7.2688 6.50159,12.3852 9.97101,9.2512 15.99328,10.7842 19.15522,4.8761 z m -50.51894,-92.4287 c -8.00219,-5.8513 -18.13401,-20.053 -50.42709,-18.4566 -16.55872,0.8096 -35.06172,14.6333 -35.7039,14.8939 -2.33616,0.9481 26.71307,-7.877 41.98713,-7.8598 23.06169,0.0259 46.47559,13.1275 44.14386,11.4225 z m 92.13592,391.0285 c 0.52886,-0.5289 1.90149,-0.5854 3.05035,-0.1256 1.26958,0.508 0.89248,0.8851 -0.96152,0.9615 -1.67769,0.0691 -2.61766,-0.3071 -2.08883,-0.8359 z"
         inkscape:connector-curvature="0" />
      <path
         style="fill:url(#linearGradient2371);fill-opacity:1;fill-rule:evenodd;stroke:none"
         id="path14027"
         d="m -594.30785,507.38658 3.54916,5.5773 8.61935,1.014 c 0,0 15.71768,-7.0983 18.7598,-8.6193 3.04213,-1.5211 32.44938,-11.1545 32.44938,-11.1545 l 14.1966,-1.5211 37.01257,11.6615 27.37915,23.323 20.28086,-4.5632 31.43532,-5.0702 33.97045,1.521 31.94234,9.1264 c 0,0 12.67552,0 13.18257,-2.0281 0.50701,-2.028 4.05616,-25.351 2.53509,-30.9283 -1.52107,-5.5772 -9.12637,-27.8861 -13.18253,-32.4493 -4.0562,-4.5632 -23.32301,-23.323 -25.35109,-25.3511 -2.02808,-2.0281 -23.32298,-17.2387 -26.87212,-19.2668 -3.54915,-2.0281 -27.88619,-11.1545 -27.88619,-11.1545 l -50.19512,-6.5913 -22.30895,1.0141 -30.42129,7.0983 -44.11088,27.3791 -21.29489,25.8581 -10.14042,19.7739 z"
         inkscape:connector-curvature="0" />
      <path
         style="fill:url(#linearGradient2368);fill-opacity:1;fill-rule:evenodd;stroke:none"
         id="path15977"
         d="m -575.25208,506.68538 -0.17927,-4.123 4.12297,-6.6326 9.32148,-7.7081 c 0,0 9.50072,-5.1985 10.21777,-5.3778 0.71704,-0.1793 10.5763,-5.0192 14.34074,-5.0192 3.76444,0 17.20887,-0.5378 17.20887,-0.5378 0,0 10.57629,0.1792 11.47259,0.3585 0.8963,0.1793 7.70814,2.5096 7.70814,2.5096 l 14.16147,5.9156 16.31259,13.6237 c 0,0 2.33036,4.1229 1.97185,5.0192 -0.35852,0.8963 -1.7926,2.5096 -1.7926,2.5096 0,0 -5.73629,-1.0755 -7.52888,-1.7925 -1.7926,-0.7171 -7.34963,-2.5097 -8.06666,-2.8682 -0.71703,-0.3585 -8.24592,-4.3022 -9.68,-4.4815 -1.43408,-0.1792 -10.57629,-3.0474 -10.57629,-3.0474 l -7.52888,-1.6133 -6.81185,-1.2548 -8.78369,0.3585 -27.78518,7.1704 -10.21778,4.6607 -5.73628,1.9718 z"
         inkscape:connector-curvature="0" />
      <path
         style="fill:url(#linearGradient2365);fill-opacity:1;fill-rule:evenodd;stroke:none"
         id="path16956"
         d="m -444.93068,524.07348 c 0,0 12.18962,-1.2548 15.77481,-2.5096 3.58518,-1.2548 21.33183,-3.4059 22.58665,-3.5852 1.25481,-0.1793 19.53924,-1.0756 24.73779,0 5.1985,1.0756 24.55849,4.123 25.99256,4.123 1.43406,0 9.14221,-0.3586 9.14221,-0.3586 0,0 1.97187,-3.5851 1.07556,-4.6607 -0.8963,-1.0756 -2.86817,-2.1511 -4.12297,-2.8681 -1.2548,-0.7171 -9.67997,-5.3778 -11.11408,-6.4534 -1.43407,-1.0755 -16.67108,-6.274 -17.56738,-6.274 -0.89631,0 -16.49186,-0.8963 -20.6148,-0.8963 -4.12297,0 -14.87851,1.2548 -16.49184,1.9718 -1.61334,0.7171 -11.29333,4.3022 -12.90666,5.0193 -1.61333,0.717 -6.45334,2.6889 -8.24592,4.4814 -1.79259,1.7926 -3.9437,4.4815 -4.30222,5.1986 -0.35852,0.717 -3.40592,6.8118 -3.94371,6.8118 z"
         inkscape:connector-curvature="0" />
      <path
         style="fill:#636363;fill-rule:evenodd;stroke:none"
         id="path9083"
         d="m -459.49123,581.16898 -4.94741,12.3686 -4.94741,12.9182 c 0,0 4.94741,-0.8246 10.44453,-0.5497 5.49713,0.2748 14.01767,1.6491 14.01767,1.6491 l -2.74856,-3.848 -2.19885,-3.8479 c 0,0 -2.47371,-3.2983 -3.57313,-6.5966 -1.09942,-3.2983 -2.47371,-7.9708 -2.47371,-7.9708 l -1.92399,-3.5732 z"
         inkscape:connector-curvature="0" />
      <path
         style="fill:#070707"
         id="path2223"
         d="m -277.50906,859.66958 c 0.93691,-1.7506 2.06156,-3.183 2.49922,-3.183 0.43766,0 0.0292,1.4324 -0.90774,3.183 -0.9369,1.7507 -2.06156,3.183 -2.49922,3.183 -0.43766,0 -0.0292,-1.4323 0.90774,-3.183 z m 4.91159,-8.1352 c -0.0754,-0.5354 2.01142,-5.7119 4.63737,-11.5034 7.64925,-16.87 6.65273,-17.5232 -7.67276,-5.0295 -5.52011,4.8142 -10.55655,8.7532 -11.19207,8.7532 -0.63549,0 -1.14481,-13.4283 -1.13178,-29.8405 0.0272,-34.2796 -3.006,-53.6674 -12.81729,-81.9266 -14.2825,-41.1376 -40.75033,-77.4625 -71.03108,-97.4845 -5.0331,-3.3279 -9.15111,-6.2709 -9.15111,-6.5399 0,-0.269 4.53991,-2.6558 10.08869,-5.304 11.72919,-5.5978 23.48084,-17.2794 28.59382,-28.4234 5.31653,-11.5876 4.91228,-30.0794 -0.91709,-41.9498 -7.99157,-16.2732 -24.62088,-28.0986 -44.72149,-31.8023 -25.93742,-4.7792 -54.63775,8.9758 -65.63687,31.4572 -2.32312,4.7483 -4.64762,8.2095 -5.16556,7.6916 -0.51792,-0.518 -1.80337,-5.1661 -2.85655,-10.3292 -4.63532,-22.7242 -19.53614,-42.8165 -38.747,-52.2465 -6.334,-3.1092 -14.05065,-5.241 -11.12726,-4.6492 8.54234,1.7292 21.32524,4.7624 29.15752,8.688 4.22706,2.1187 8.48259,3.5864 9.45673,3.2617 3.55705,-1.1856 -12.05543,-15.5443 -22.48395,-20.6783 -9.86709,-4.8575 -11.52513,-5.1691 -27.25049,-5.1217 -20.57428,0.062 -31.08891,3.6765 -43.26521,14.8726 -11.07107,10.1799 -9.75229,12.6804 3.40561,6.4573 12.41372,-5.8711 26.64973,-9.42 37.43889,-9.3331 l 14.05229,1.8567 -17.87563,1.2925 c -14.39416,3.7694 -25.62592,10.7433 -33.64834,20.8924 -25.71718,32.5346 -24.37997,83.8583 2.946,113.072 l 7.38111,7.891 -8.70862,7.3647 c -35.51033,30.0303 -59.12216,72.5844 -69.48887,125.2353 -2.09638,10.6472 -2.82783,22.1867 -2.84989,44.9598 -0.0163,16.85 -0.52602,30.6364 -1.1327,30.6363 -0.60667,0 -5.83924,-4.0181 -11.62792,-8.929 -5.78867,-4.9109 -10.9543,-8.4994 -11.47916,-7.9746 -0.52487,0.5249 0.22391,3.9538 1.66396,7.6198 4.60491,11.7229 1.71991,8.2106 -3.53118,-4.2991 -7.31484,-17.4261 -12.73243,-41.8337 -14.23642,-64.1386 -0.7212,-10.6958 -2.08678,-20.2223 -3.03461,-21.1701 -2.09675,-2.0968 -14.1221,1.5586 -28.26886,8.593 -12.9465,6.4376 -39.02916,21.7818 -43.07291,25.3396 -3.54327,3.1174 -11.02971,3.8875 -12.62938,1.2991 -0.54098,-0.8753 -0.0243,-1.5915 1.1481,-1.5915 1.17242,0 6.67973,-5.4077 12.23845,-12.0172 5.55871,-6.6095 15.92067,-17.173 23.02658,-23.4745 24.0067,-21.2892 53.75902,-51.2088 56.8197,-57.1392 5.26529,-10.202 9.74039,-23.5969 8.74776,-26.1836 -0.52632,-1.3716 1.22332,-6.2947 3.89935,-10.9719 11.00356,-19.2322 16.99768,-44.4585 19.07132,-80.2617 1.64214,-28.3528 5.95906,-47.8732 14.91023,-67.4212 23.86051,-52.108 74.76097,-90.6147 131.87525,-99.7651 19.50629,-3.1252 55.66618,-1.2065 74.41324,3.9484 47.82798,13.1513 88.89991,46.4781 110.58985,89.7353 12.05459,24.0411 16.27013,41.5199 18.29594,75.8607 1.97156,33.4205 8.29927,60.6217 17.68374,76.0178 2.54232,4.1709 4.61009,9.5422 4.59502,11.9362 -0.0151,2.394 1.95437,9.724 4.37659,16.2889 3.96181,10.7377 6.08193,13.6749 21.11472,29.2519 9.19088,9.5236 24.58856,24.27 34.2171,32.7697 9.62854,8.4997 22.51205,21.2976 28.62996,28.4398 6.11795,7.1422 12.06863,12.9857 13.22378,12.9857 1.15511,0 1.65757,0.7162 1.11663,1.5915 -1.43596,2.3234 -11.45895,1.9478 -12.38449,-0.464 -0.72483,-1.889 -16.31558,-11.391 -40.13484,-24.461 -5.25191,-2.8818 -14.14243,-6.786 -19.75666,-8.676 -13.16716,-4.4328 -13.65258,-3.7972 -15.00488,19.6444 -1.03686,17.9744 -4.78262,38.1023 -9.84356,52.8951 -2.87219,8.3951 -14.70743,34.144 -14.93882,32.501 z m -56.45144,-330.2226 c 0.57205,-2.2792 0.6745,-9.9781 0.22768,-17.1085 -3.47363,-55.4335 -55.82501,-99.624 -121.36494,-102.4458 -44.48008,-1.915 -81.62872,11.7936 -108.78814,40.1449 -17.47501,18.2419 -28.8761,42.0535 -28.8761,60.3087 0,7.1835 1.66357,7.2351 7.01597,0.2177 9.64094,-12.6399 32.2925,-24.8273 50.33358,-27.0814 25.67174,-3.2075 56.41556,12.1728 71.80431,35.9217 2.78724,4.3014 5.56842,7.8208 6.18043,7.8208 0.612,0 5.88702,-3.2015 11.72228,-7.1145 5.83526,-3.913 15.31577,-8.5681 21.06781,-10.3447 12.37314,-3.8217 32.30884,-4.2772 44.54955,-1.0179 10.84615,2.888 26.30254,11.2585 34.51868,18.6938 7.90468,7.1535 10.21653,7.5528 11.60889,2.0052 z m -95.93123,-4.6094 c 16.08837,-3.0786 38.63114,-3.0414 55.14371,0.091 7.18462,1.3629 14.9531,2.2581 17.26335,1.9894 l 4.20047,-0.4887 -4.75346,-4.4037 c -11.43516,-10.5939 -39.26664,-15.2692 -59.71316,-10.031 -10.74092,2.7517 -25.59404,10.2102 -26.65172,13.3832 -0.77977,2.3393 -0.47883,2.3281 14.51081,-0.5402 z m -340.55617,253.6691 c 0.78287,-0.2992 0.0994,-0.0689 0.0917,-0.0371 -0.13657,0.5659 0.21266,-1.0973 -0.16801,0.8823 -0.38067,1.9797 -0.0662,-0.2259 0.0763,-0.8452 z m 605.9602,3.1565 c -0.0324,-2.626 1.60629,-3.1792 2.04225,-2.1017 0.43592,1.0775 0.81934,1.5606 0.41584,3.1091 -0.40353,1.5485 -2.42563,1.6186 -2.45809,-1.0074 z m -307.3701,-169.0763 c -0.992,-1.6051 5.33096,-19.7349 7.88097,-20.6213 2.64628,-0.9198 2.19939,1.1674 3.35981,5.4807 1.0308,3.8314 2.89177,8.9357 4.13547,11.3429 l 4.56319,6.103 -9.41058,-1.7264 c -3.90978,0 -10.11458,0.0914 -10.52886,-0.5789 z m -12.19034,-9.7116 c -7.76114,-3.3754 -14.81571,-14.1484 -14.81571,-22.6251 0,-8.1351 3.89641,-18.5702 6.59778,-17.6697 1.64925,0.5497 6.74783,8.6602 8.21935,13.0747 0.35301,1.059 2.65907,0.9611 6.72072,-0.2855 7.51773,-2.3072 8.65636,-1.1017 8.64122,9.1492 -0.0119,8.0464 -5.06217,20.7222 -8.21822,20.6271 -1.13694,-0.0343 -4.35226,-1.0561 -7.14514,-2.2707 z m 40.62432,-0.564 c -1.45723,-0.5949 -5.57523,-3.7963 -9.15109,-7.114 -5.51453,-5.1164 -6.50159,-6.9967 -6.50159,-12.3852 0,-7.0206 3.70766,-17.3912 6.21768,-17.3912 0.88309,0 3.51846,3.2641 5.85637,7.2534 2.84866,4.8609 5.01935,6.9584 6.58092,6.3592 7.96872,-3.0579 9.53326,-2.7761 10.46552,1.8853 1.01563,5.0781 -0.54292,13.6971 -3.46368,19.1546 -1.90123,3.5524 -5.05601,4.2582 -10.00413,2.2379 z"
         inkscape:connector-curvature="0" />
      <path
         style="fill:url(#linearGradient10090);fill-opacity:1;stroke:#000000;stroke-opacity:1"
         id="path8144"
         transform="matrix(1.7904309,0,0,1.5914941,-1130.4942,29.12901)"
         d="m 373.43443,343.01617 a 9.5675755,17.191736 0 1 1 -19.13515,0 9.5675755,17.191736 0 1 1 19.13515,0 z"
         inkscape:connector-curvature="0" />
      <path
         style="fill:#000000;fill-opacity:1;stroke:#000000;stroke-width:1.48909414;stroke-opacity:1"
         id="path10092"
         d="m -486.30029,551.98458 c -2.85581,4.5429 -4.67502,11.1789 -4.67502,18.5508 0,13.6867 6.23042,24.7677 13.87584,24.7677 7.64544,0 13.82611,-11.081 13.82611,-24.7677 0,-2.4764 -0.16902,-4.9046 -0.54708,-7.1617 l -0.94495,0.4974 -12.33408,4.7247 c 0,0 -1.45036,-6.1684 -3.82953,-9.4992 -0.94474,-1.3226 -3.12799,-4.1885 -5.37129,-7.112 z"
         inkscape:connector-curvature="0" />
      <g
         id="g10107"
         transform="matrix(1.4229651,0,0,1.376695,-956.36423,104.4242)">
        <path
           style="fill:url(#linearGradient2254);fill-opacity:1;stroke:#000000;stroke-opacity:1"
           id="path10103"
           transform="matrix(1.125,0,0,1,-46.679302,0)"
           d="m 373.43443,343.01617 a 9.5675755,17.191736 0 1 1 -19.13515,0 9.5675755,17.191736 0 1 1 19.13515,0 z"
           inkscape:connector-curvature="0" />
        <path
           style="fill:#000000;fill-opacity:1;stroke:#000000;stroke-width:0.93565798;stroke-opacity:1"
           id="path10105"
           d="m 358.09375,328.53125 c -1.79442,2.8545 -2.9375,7.02416 -2.9375,11.65625 0,8.59987 3.91482,15.56249 8.71875,15.5625 4.80394,0 8.6875,-6.96262 8.6875,-15.5625 0,-1.55605 -0.1062,-3.08178 -0.34375,-4.5 L 371.625,336 l -7.75,2.96875 c 0,0 -0.91132,-3.87583 -2.40625,-5.96875 -0.59362,-0.83106 -1.96544,-2.6318 -3.375,-4.46875 z"
           inkscape:connector-curvature="0" />
      </g>
      <path
         style="fill:#000000;fill-opacity:1;fill-rule:evenodd;stroke:none"
         id="path15006"
         d="m -518.60619,492.70318 10.39704,2.5096 9.85924,3.2267 3.58519,0.717 -6.45333,-3.5852 -8.42518,-2.5096 -2.86814,-0.8963 h -4.84001 z"
         inkscape:connector-curvature="0" />
      <path
         style="fill:#cda809;fill-rule:evenodd;stroke:none"
         id="path8112"
         d="m -417.94981,653.09168 10.98095,-13.5075 0.87457,0.2915 -12.04987,14.7708 z"
         inkscape:connector-curvature="0" />
    </g>
    <g
       id="g2994"
       inkscape:label="g2994">
      <g
         inkscape:label="#g2998"
         id="leftEye">
        <path
           inkscape:label="#path2715"
           style="display:inline;fill:url(#linearGradient2951);fill-opacity:1;stroke:none"
           id="123"
           d="m 303.91939,175.39274 c 0,42.31028 -25.88423,76.60954 -57.81403,76.60954 -31.92981,0 -57.81404,-34.29926 -57.81404,-76.60954 0,-42.31028 25.88423,-76.609541 57.81404,-76.609541 31.9298,0 57.81403,34.299261 57.81403,76.609541 z"
           inkscape:connector-curvature="0" />
        <path
           style="display:inline;fill:url(#linearGradient2939);fill-opacity:1;fill-rule:evenodd;stroke:none"
           id="path2723"
           d="m 205.32474,121.62325 c 0,0 -4.75836,42.8252 14.7509,68.5204 19.50926,25.6951 53.29359,36.1635 53.29359,36.1635 0,0 9.99255,-47.5836 -8.56504,-71.8512 -18.5576,-24.2676 -59.47945,-32.8327 -59.47945,-32.8327 z"
           inkscape:connector-curvature="0" />
      </g>
    </g>
    <g
       inkscape:label="#g2989"
       id="rightEye">
      <path
         d="m 423.86395,176.26146 c 0.0176,28.01891 -26.17223,50.74082 -58.48505,50.74082 -32.31283,0 -58.50262,-22.72191 -58.48504,-50.74082 -0.0176,-28.01893 26.17221,-50.74083 58.48504,-50.74083 32.31282,0 58.50262,22.7219 58.48505,50.74083 z"
         id="path2717"
         style="display:inline;fill:url(#linearGradient2948);fill-opacity:1;stroke:none"
         inkscape:connector-curvature="0" />
      <path
         d="m 387.84659,206.57576 c 0,0 12.50779,-0.91173 18.06681,-3.19102 5.55901,-2.27929 13.4343,-7.74951 13.4343,-7.74951 0,0 12.04454,-21.88096 -5.55902,-47.40877 -17.60355,-25.52781 -61.61247,-20.51341 -61.61247,-20.51341 l -5.55902,3.19102 z"
         id="path2719"
         style="display:inline;fill:url(#linearGradient2945);fill-opacity:1;fill-rule:evenodd;stroke:none"
         inkscape:connector-curvature="0" />
      <path
         d="m 348.55125,131.14005 v 0 c 0,0 26.6468,4.7583 42.34939,35.2118 15.70255,30.4535 -0.95168,44.2527 -0.95168,44.2527 0,0 -31.40516,6.1859 -50.43858,-3.8067 -19.03343,-9.9925 -28.0743,-43.301 -28.0743,-43.301 0,0 0.95167,-10.9442 15.22674,-20.461 14.27506,-9.5167 22.36428,-11.42 21.88843,-11.8958 z"
         id="path2721"
         style="display:inline;fill:url(#linearGradient2942);fill-opacity:1;fill-rule:evenodd;stroke:none"
         inkscape:connector-curvature="0" />
    </g>
  </g>
  <g
     id="beak"
     inkscape:label="#g3935"
     style="display:inline">
    <path
       style="display:inline;fill:url(#linearGradient3933);fill-opacity:1;stroke:none"
       id="path22858"
       d="m 233.58934,542.54921 c 0,24.2647 -28.41729,43.93512 -63.47179,43.93512 -35.0545,0 -63.47179,-19.67042 -63.47179,-43.93512 0,-24.2647 28.41729,-43.93513 63.47179,-43.93513 35.0545,0 63.47179,19.67043 63.47179,43.93513 z"
       inkscape:connector-curvature="0" />
    <path
       style="display:inline;fill:url(#linearGradient3930);fill-opacity:1;stroke:none"
       id="path3201"
       d="m 514.74653,542.54921 c 0,24.2647 -28.41729,43.93512 -63.47179,43.93512 -35.0545,0 -63.47179,-19.67042 -63.47179,-43.93512 0,-24.2647 28.41729,-43.93513 63.47179,-43.93513 35.0545,0 63.47179,19.67043 63.47179,43.93513 z"
       inkscape:connector-curvature="0" />
    <path
       style="display:inline;fill:url(#linearGradient3927);fill-opacity:1;fill-rule:evenodd;stroke:none"
       id="path3205"
       d="m 253.33079,229.76367 c -0.72824,0.1821 -2.36677,5.0977 -2.36677,5.0977 0,0 -0.72824,2.5488 -0.36412,4.3694 0.36412,1.8205 0,3.4591 0.9103,4.9156 0.91029,1.4564 43.14792,48.2455 43.14792,48.2455 0,0 2.73089,4.3694 7.64648,3.8233 4.91558,-0.5462 6.5541,-1.0924 8.01058,-2.0027 1.45647,-0.9103 36.95793,-36.5938 36.95793,-36.5938 l 12.56206,-16.0212 c 0,0 0.91028,-3.8232 0.54617,-7.2823 -0.36412,-3.4591 -6.00794,-9.103 -6.00794,-9.103 0,0 -5.46175,-3.6411 -6.91823,-4.1873 -1.45647,-0.5462 -23.12146,-9.8312 -36.95793,-10.1953 -13.83647,-0.3641 -35.68352,5.2797 -35.68352,5.2797 z"
       inkscape:connector-curvature="0" />
    <path
       style="display:inline;fill:#cda809"
       id="path2227"
       d="m 95.796124,587.71586 c -13.84107,-4.935 -19.2066,-14.076 -18.22412,-31.0475 1.41399,-24.4259 16.94927,-42.2322 50.189146,-57.5259 20.32292,-9.3506 32.76306,-11.4853 61.61817,-10.5737 20.39917,0.6444 25.94137,1.3995 37.46808,5.1042 25.67941,8.2534 47.14267,23.7554 56.37405,40.7165 4.82352,8.8624 6.99946,23.5232 5.04082,33.9636 -1.38498,7.3827 -7.92682,15.0295 -15.99144,18.6928 -5.97686,2.7149 -12.22949,2.9191 -88.39377,2.8867 -65.31735,-0.0279 -83.20457,-0.478 -88.080936,-2.2167 z m 88.714856,-18.5348 c 34.44721,-1.722 35.26464,-1.8428 39.52306,-5.8409 14.81417,-13.9087 9.88886,-38.4621 -10.50833,-52.3857 -12.82025,-8.7513 -26.74724,-12.1053 -46.81947,-11.2753 -27.46077,1.1356 -46.25967,10.8625 -55.03772,28.4778 -7.00331,14.0538 -4.32993,29.0619 6.85293,38.4717 6.11076,5.1418 10.66508,5.318 65.98953,2.5524 z m 154.53676,18.9463 c -2.62597,-0.9123 -7.38803,-4.1535 -10.58239,-7.2027 -21.39456,-20.4222 -3.13693,-61.2903 35.66833,-79.8402 19.87472,-9.5007 37.6074,-13.3027 61.60817,-13.2094 24.51107,0.0953 33.26065,1.761 52.43387,9.982 18.81908,8.0692 29.69477,15.2535 39.75631,26.2625 12.8671,14.0787 18.13182,35.0045 12.31138,48.9346 -2.76768,6.6241 -10.58351,13.2146 -18.1701,15.3216 -8.07032,2.2414 -166.51365,2.0139 -173.02557,-0.2484 z m 164.82401,-21.4987 c 21.22516,-17.8598 9.84224,-50.311 -21.98409,-62.6739 -12.82695,-4.9825 -38.21353,-6.0705 -52.35172,-2.2434 -34.18468,9.2534 -50.50299,40.406 -31.83541,60.7758 l 5.14616,5.6154 23.00708,1.1733 c 12.6539,0.6452 34.23184,1.2835 47.95097,1.4184 l 24.94396,0.2451 z M 297.41268,296.74817 c -1.89156,-1.0632 -13.52237,-13.3918 -25.84623,-27.3969 -20.42105,-23.207 -22.40842,-26.0022 -22.42258,-31.5366 -0.009,-3.34 0.72758,-7.4613 1.63587,-9.1585 2.05301,-3.836 15.99273,-10.9315 31.94607,-16.2607 20.57102,-6.8718 40.81008,-3.8735 68.48997,10.1463 3.19113,1.6162 6.95104,4.0877 8.35534,5.492 3.11403,3.114 3.31703,10.222 0.40563,14.2036 -1.94884,2.6652 -2.08231,2.4918 -1.44177,-1.8725 0.98937,-6.7411 -3.36695,-14.2058 -10.36895,-17.7678 -16.07929,-8.1795 -40.13887,-12.5651 -54.07908,-9.8574 -11.6075,2.2545 -26.65645,8.4596 -26.65645,10.9912 0,1.1608 4.64534,3.7327 10.34472,5.7274 20.55693,7.1948 37.75377,18.1065 48.71181,30.9085 3.10587,3.6285 6.45932,6.5973 7.45212,6.5973 0.99283,0 4.9705,-3.0438 8.83928,-6.7639 10.74869,-10.3356 5.36311,-2.3346 -11.17004,16.5947 -18.24294,20.8869 -25.25491,24.9784 -34.19571,19.9533 z m 12.54689,-5.6627 c 1.76244,-1.7118 -53.68316,-58.214 -55.8259,-56.8898 -1.0023,0.6195 -1.82236,3.2223 -1.82236,5.784 0,3.7506 4.2039,9.2925 21.58542,28.4556 11.87197,13.0888 22.7936,24.1303 24.27029,24.5366 3.11886,0.858 10.12002,-0.2619 11.79255,-1.8864 z"
       inkscape:connector-curvature="0" />
    <rect
       y="-8.0530612e-05"
       x="0.019791933"
       height="589.62708"
       width="609.75464"
       id="rect3133"
       style="opacity:0;fill:none;stroke:#000000;stroke-width:0.99984086px;stroke-linecap:butt;stroke-linejoin:miter;stroke-opacity:1" />
  </g>
  <g
     id="leftPupil"
     inkscape:label="#g4129"
     transform="translate(-2026.8107,-113.79394)"
     style="display:inline">
    <path
       style="display:inline;fill:url(#linearGradient4134);fill-opacity:1;stroke:#000000;stroke-width:1.68803442;stroke-opacity:1"
       id="path8144-1"
       d="m 2288.6664,284.92544 a 17.130083,27.360546 0 1 1 -34.2601,0 17.130083,27.360546 0 1 1 34.2601,0 z"
       inkscape:connector-curvature="0" />
    <path
       style="display:inline;fill:#000000;fill-opacity:1;stroke:#000000;stroke-width:1.48909414;stroke-opacity:1"
       id="path10092-2"
       d="m 2264.2518,261.8728 c -2.8558,4.5429 -4.675,11.1789 -4.675,18.5508 0,13.6867 6.2304,24.7677 13.8758,24.7677 7.6455,0 13.8261,-11.081 13.8261,-24.7677 0,-2.4764 -0.169,-4.9046 -0.5471,-7.1617 l -0.9449,0.4974 -12.3341,4.7247 c 0,0 -1.4504,-6.1684 -3.8295,-9.4992 -0.9448,-1.3226 -3.128,-4.1885 -5.3713,-7.112 z"
       inkscape:connector-curvature="0" />
  </g>
  <g
     id="rightPupil"
     transform="translate(-772.1606,-226.27417)"
     inkscape:label="#g4113"
     style="display:inline">
    <path
       d="m 1153.4719,400.51033 a 15.316116,23.667777 0 1 1 -30.6322,0 15.316116,23.667777 0 1 1 30.6322,0 z"
       id="path10103-2"
       style="fill:url(#linearGradient4118);fill-opacity:1;stroke:#000000;stroke-width:1.48454118;stroke-opacity:1"
       inkscape:connector-curvature="0" />
    <path
       d="m 1131.6427,380.56901 c -2.5534,3.92978 -4.18,9.67013 -4.18,16.0471 0,11.8394 5.5707,21.4248 12.4065,21.42482 6.8358,0 12.362,-9.58541 12.362,-21.42482 0,-2.14221 -0.1511,-4.24267 -0.4891,-6.19513 l -0.8449,0.43022 -11.028,4.08706 c 0,0 -1.2968,-5.33583 -3.424,-8.21715 -0.8447,-1.14411 -2.7968,-3.62318 -4.8025,-6.1521 z"
       id="path10105-2"
       style="fill:#000000;fill-opacity:1;stroke:#000000;stroke-width:1.30958331;stroke-opacity:1"
       inkscape:connector-curvature="0" />
  </g>
</svg>
